<svg id="图层_1" data-name="图层 1" xmlns="http://www.w3.org/2000/svg" viewBox="0 0 128 128"><defs><style>.cls-1{fill:#fff;}.cls-2{fill:#7a7af9;}.cls-3{fill:#ccdaff;}.cls-4{fill:#caf1ff;}.cls-5{fill:#3d94fc;}.cls-6{fill:#fda94f;}</style></defs><title>画板 1</title><rect class="cls-1" x="15" y="5" width="98" height="119"/><path class="cls-2" d="M107.39,127.55H21a8.62,8.62,0,0,1-8.61-8.61V8.57A8.62,8.62,0,0,1,21,0h86.36A8.62,8.62,0,0,1,116,8.57V118.94A8.62,8.62,0,0,1,107.39,127.55ZM21,5a3.63,3.63,0,0,0-3.62,3.62V118.94A3.62,3.62,0,0,0,21,122.56h86.36a3.62,3.62,0,0,0,3.62-3.62V8.57A3.63,3.63,0,0,0,107.39,5Z"/><path class="cls-2" d="M94.09,54.09V76.34H91.6V54.09A1.58,1.58,0,0,0,90,52.52H63.16V50H90A4.06,4.06,0,0,1,94.09,54.09Z"/><path class="cls-2" d="M63.66,100.49V103H37.58a4.07,4.07,0,0,1-4.07-4.06V76.34H36V98.92a1.58,1.58,0,0,0,1.58,1.57Z"/><rect class="cls-3" x="52.64" y="68.58" width="35.81" height="25.04" rx="3.01" ry="3.01"/><path class="cls-2" d="M94.73,106.2H67.37a3.28,3.28,0,0,1-3-3.49V80.6a3.27,3.27,0,0,1,3-3.48H94.73a3.27,3.27,0,0,1,3,3.48v22.11A3.27,3.27,0,0,1,94.73,106.2ZM67.37,78.94a1.56,1.56,0,0,0-1.43,1.66v22.11a1.57,1.57,0,0,0,1.43,1.67H94.73a1.57,1.57,0,0,0,1.43-1.67V80.6a1.56,1.56,0,0,0-1.43-1.66Z"/><path class="cls-4" d="M62.15,69.75a2.38,2.38,0,0,1-.83,1.61A10.16,10.16,0,0,1,58.2,73.3,24.79,24.79,0,0,1,53,74.78a38.35,38.35,0,0,1-13.06,0A24.2,24.2,0,0,1,34.8,73.3a10.16,10.16,0,0,1-3.12-1.94,2.38,2.38,0,0,1-.83-1.61V67.69a9.21,9.21,0,0,0,.76.53c3.21,2,8.68,3.4,14.89,3.4s11.68-1.35,14.89-3.4l.12-.07a0,0,0,0,1,0,0l.11-.07.08-.06.07-.05.37-.27v2.06Z"/><path class="cls-4" d="M62.15,64.25a2.29,2.29,0,0,1-.76,1.54l-.07.07a8,8,0,0,1-1.75,1.27c-.41.23-.88.45-1.37.67A25.41,25.41,0,0,1,53,69.28a39,39,0,0,1-13.06,0A25.41,25.41,0,0,1,34.8,67.8c-.49-.22-.95-.44-1.37-.67a8.61,8.61,0,0,1-1.75-1.27l-.07-.07a2.29,2.29,0,0,1-.76-1.54V62.19a9.21,9.21,0,0,0,.76.53c3.21,2,8.68,3.4,14.89,3.4s11.68-1.35,14.89-3.4a9.21,9.21,0,0,0,.76-.53Z"/><path class="cls-4" d="M62.15,58.75a2.27,2.27,0,0,1-.76,1.53l-.07.07a7.69,7.69,0,0,1-1.75,1.27,12.49,12.49,0,0,1-1.37.67A24.2,24.2,0,0,1,53,63.77a38.35,38.35,0,0,1-13.06,0,24.2,24.2,0,0,1-5.17-1.48,13.44,13.44,0,0,1-1.37-.67,7.92,7.92,0,0,1-1.75-1.27l-.07-.07a2.27,2.27,0,0,1-.76-1.53V56.68c.23.18.49.36.76.54,3.21,2,8.68,3.39,14.89,3.39s11.68-1.35,14.89-3.39a9.25,9.25,0,0,0,.76-.54Z"/><path class="cls-4" d="M61.39,55.28l-.07.07a7.69,7.69,0,0,1-1.75,1.27,12.49,12.49,0,0,1-1.37.67A24.2,24.2,0,0,1,53,58.77a38.35,38.35,0,0,1-13.06,0,24.2,24.2,0,0,1-5.17-1.48c-.49-.21-.95-.43-1.37-.66a8.26,8.26,0,0,1-1.75-1.28.23.23,0,0,1-.07-.07,2.27,2.27,0,0,1-.76-1.53,2.36,2.36,0,0,1,.83-1.6A10,10,0,0,1,34.8,50.2,24.81,24.81,0,0,1,40,48.73a36.23,36.23,0,0,1,6.53-.57,37.09,37.09,0,0,1,6.53.56A24.2,24.2,0,0,1,58.2,50.2a10.16,10.16,0,0,1,3.12,1.94,2.4,2.4,0,0,1,.83,1.61A2.27,2.27,0,0,1,61.39,55.28Z"/><path class="cls-5" d="M62.65,53.76c0-4-7.28-7.22-16.27-7.22S30.1,49.77,30.1,53.76v5.29h0v.16c0,.11,0,.21,0,.32h0v5.3h0v5.29c0,4,7.28,7.22,16.28,7.22s16.27-3.23,16.27-7.22V64.83h0v-5.3h0c0-.1,0-.21,0-.32v-.16h0Zm-2,16.58a2,2,0,0,1-.76,1.36A9.24,9.24,0,0,1,57,73.35a23.76,23.76,0,0,1-4.71,1.26,36.93,36.93,0,0,1-11.87,0,23.1,23.1,0,0,1-4.71-1.26,9.24,9.24,0,0,1-2.84-1.65,2,2,0,0,1-.76-1.36V68.58l.69.45c2.92,1.74,7.9,2.89,13.56,2.89S57,70.77,59.93,69L60,69h0l.09-.06.08-.05.06,0,.34-.23Zm0-5.43a1.91,1.91,0,0,1-.69,1.31l-.07.06a7.2,7.2,0,0,1-1.59,1.08,13.31,13.31,0,0,1-1.25.57,23.76,23.76,0,0,1-4.71,1.26,37.71,37.71,0,0,1-11.87,0,23.76,23.76,0,0,1-4.71-1.26,13.31,13.31,0,0,1-1.25-.57,7.2,7.2,0,0,1-1.59-1.08l-.07-.06a1.91,1.91,0,0,1-.69-1.31V63.16l.69.45c2.92,1.74,7.9,2.89,13.56,2.89S57,65.35,59.93,63.61l.69-.45Zm0-5.42a1.89,1.89,0,0,1-.69,1.3s0,.05-.07.06a7.2,7.2,0,0,1-1.59,1.09,13.31,13.31,0,0,1-1.25.57,23.79,23.79,0,0,1-4.71,1.25,36.93,36.93,0,0,1-11.87,0,23.79,23.79,0,0,1-4.71-1.25,13.31,13.31,0,0,1-1.25-.57,7.2,7.2,0,0,1-1.59-1.09s0,0-.07-.06a1.87,1.87,0,0,1-.69-1.3V57.73c.22.16.45.31.69.46,2.92,1.74,7.9,2.89,13.56,2.89S57,59.93,59.93,58.19c.24-.15.47-.3.69-.46ZM59.93,55l-.07.06a7.26,7.26,0,0,1-1.59,1.15,13.26,13.26,0,0,1-1.25.6,23,23,0,0,1-4.71,1.33,35.47,35.47,0,0,1-11.87,0,22.34,22.34,0,0,1-4.71-1.33,13.26,13.26,0,0,1-1.25-.6,7,7,0,0,1-1.59-1.15L32.82,55a2.06,2.06,0,0,1-.69-1.38,2.1,2.1,0,0,1,.76-1.44,9.07,9.07,0,0,1,2.84-1.75,23,23,0,0,1,4.71-1.33,35.47,35.47,0,0,1,11.87,0A22.34,22.34,0,0,1,57,50.46a9.07,9.07,0,0,1,2.84,1.75,2.1,2.1,0,0,1,.76,1.44A2.06,2.06,0,0,1,59.93,55Z"/><path class="cls-6" d="M91,92.25l-.27,0-1.94-4.83a3.11,3.11,0,0,0,1.07-1.82A3.14,3.14,0,1,0,84.35,87L76.5,97.25l-.31-.08a4.18,4.18,0,0,0-.61,0l-1.89-4.8a2.19,2.19,0,1,0-2,.67l.25,0,1.89,4.81a2.73,2.73,0,0,0-.9,1.57,2.81,2.81,0,1,0,5.12-1L86,88a3.36,3.36,0,0,0,1,.08l1.94,4.82A2.22,2.22,0,0,0,88.39,94,2.19,2.19,0,1,0,91,92.25Zm-5.43-7.51a1.22,1.22,0,0,1,1.44-1,1.23,1.23,0,1,1-.47,2.41A1.22,1.22,0,0,1,85.53,84.74Z"/></svg>