<?xml version="1.0" encoding="utf-8"?>
<!-- Generator: Adobe Illustrator 21.0.0, SVG Export Plug-In . SVG Version: 6.00 Build 0)  -->
<svg version="1.1" id="图层_1" xmlns="http://www.w3.org/2000/svg" xmlns:xlink="http://www.w3.org/1999/xlink" x="0px" y="0px"
	 viewBox="0 0 128 128" style="enable-background:new 0 0 128 128;" xml:space="preserve">
<style type="text/css">
	.st0{fill:#FFFFFF;stroke:#0BAAA2;stroke-width:5;stroke-miterlimit:10;}
	.st1{opacity:0.4;fill:#0BAAA2;enable-background:new    ;}
	.st2{fill:#0BAAA2;}
	.st3{fill:#FFFFFF;stroke:#A5A5A5;stroke-width:2;stroke-miterlimit:10;}
	.st4{fill:#B21616;}
	.st5{fill:#C6851C;}
</style>
<title>loongoffice-calc 1</title>
<path class="st0" d="M20.7,2.5h86.6c3.4,0,6.1,2.7,6.1,6.1v110.7c0,3.4-2.7,6.1-6.1,6.1H20.7c-3.4,0-6.1-2.7-6.1-6.1V8.7
	C14.6,5.3,17.3,2.5,20.7,2.5z"/>
<rect x="32.2" y="51.7" class="st1" width="57" height="15.3"/>
<path class="st2" d="M87.5,102.4H33.7c-1.9,0-3.5-1.5-3.5-3.4V53.4c0-1.9,1.6-3.4,3.5-3.4h53.8c1.9,0,3.4,1.5,3.4,3.4v45.5
	C90.9,100.8,89.4,102.4,87.5,102.4L87.5,102.4z M71.6,99.6h15.9c0.4,0,0.7-0.3,0.7-0.7l0,0l0,0V85.8H71.6V99.6z M52.3,99.6h16.5
	V85.8H52.3V99.6z M33,85.8v13.1c0,0.4,0.3,0.7,0.7,0.7l0,0h15.9V85.8H33z M71.6,83.1h16.5V69.3H71.6V83.1z M52.3,83.1h16.5V69.3
	H52.3V83.1z M33,83.1h16.5V69.3H33V83.1z M88.2,66.5V53.4c0-0.4-0.3-0.7-0.7-0.7l0,0H33.7c-0.4,0-0.7,0.3-0.7,0.7l0,0v13.1H88.2z"/>
<path class="st3" d="M64.5,76.1h35.1c1.6,0,2.8,1.3,2.8,2.8v24.3c0,1.6-1.3,2.8-2.8,2.8H64.5c-1.6,0-2.8-1.3-2.8-2.8V79
	C61.7,77.4,62.9,76.1,64.5,76.1z"/>
<path class="st2" d="M72.4,88.4c0.5,0,1.1,0.2,1.4,0.6s0.5,0.9,0.4,1.4v14.7h-5.8V90.6c0-0.6,0.2-1.2,0.6-1.6
	c0.3-0.4,0.8-0.6,1.3-0.6H72.4z"/>
<path class="st4" d="M82.7,80.1c0.5,0,1.1,0.2,1.4,0.6c0.4,0.4,0.6,0.8,0.5,1.4v23.2h-6.3V82c0-0.3,0.1-0.6,0.2-0.9
	c0.1-0.2,0.3-0.4,0.5-0.6s0.4-0.3,0.7-0.3c0.2-0.1,0.4-0.1,0.7-0.1H82.7z"/>
<path class="st5" d="M93.2,94.7c0.2,0,0.5,0.1,0.7,0.2s0.5,0.3,0.7,0.5s0.4,0.4,0.5,0.7c0.1,0.3,0.2,0.5,0.2,0.8v8.3H89v-8.3
	c0-0.3,0.1-0.5,0.2-0.8s0.2-0.5,0.4-0.7c0.2-0.2,0.4-0.4,0.6-0.5s0.5-0.2,0.8-0.2H93.2z"/>
</svg>
