<?xml version="1.0" encoding="utf-8"?>
<!-- Generator: Adobe Illustrator 21.0.0, SVG Export Plug-In . SVG Version: 6.00 Build 0)  -->
<svg version="1.1" id="图层_1" xmlns="http://www.w3.org/2000/svg" xmlns:xlink="http://www.w3.org/1999/xlink" x="0px" y="0px"
	 viewBox="0 0 128 128" style="enable-background:new 0 0 128 128;" xml:space="preserve">
<style type="text/css">
	.st0{fill:#FFFFFF;stroke:#EDA006;stroke-width:5;stroke-miterlimit:10;}
	.st1{fill:#FFBBBB;stroke:#E59C9C;stroke-miterlimit:10;}
	.st2{fill:#83E5D7;stroke:#71BFB4;stroke-miterlimit:10;}
	.st3{fill:#FFF2BB;stroke:#EEDA72;stroke-miterlimit:10;}
	.st4{fill:#EFD7B6;stroke:#E9CDA5;stroke-miterlimit:10;}
	.st5{fill:#A0DCEA;stroke:#6BBED7;stroke-miterlimit:10;}
</style>
<title>loongoffice-draw的副本</title>
<path class="st0" d="M20.7,2.5h86.6c3.4,0,6.1,2.7,6.1,6.1v110.7c0,3.4-2.7,6.1-6.1,6.1H20.7c-3.4,0-6.1-2.7-6.1-6.1V8.7
	C14.6,5.3,17.3,2.5,20.7,2.5z"/>
<circle class="st1" cx="46.9" cy="66.4" r="16.9"/>
<polygon class="st2" points="60,105.1 41.4,106.8 30.6,91.6 38.4,74.6 57,72.9 67.8,88.1 "/>
<path class="st3" d="M74.7,50.5c4.2,0,8.3,0.1,12.5,0c2.7-0.1,4,0.9,4,3.8c-0.1,8.6-0.1,17.3,0,25.9c0,2.6-1.2,3.7-3.6,3.7
	c-8.6,0-17.3,0-25.9,0c-2.7,0-4-1.4-4-4.1V54.2c0-2.6,1.2-3.8,3.8-3.7C66,50.6,70.4,50.5,74.7,50.5z"/>
<path class="st4" d="M68.7,106.9c-6.9,0-13.8,0-20.7,0c-1.8,0-2.4-0.8-2.4-2.4c0-2.7,0-5.3,0-8c0-2.1,0.7-2.8,2.7-2.8h40.8
	c2.2,0,2.7,0.6,2.7,2.7v7.6c0,2.5-0.3,2.8-2.7,2.8L68.7,106.9z"/>
<path class="st5" d="M82.4,78.3c2.5,0,5,0.1,7.4,0c1.6,0,2.4,0.6,2.3,2.3c-0.1,5.1-0.1,10.1,0,15.2c0.2,1.1-0.5,2.1-1.6,2.3
	c-0.2,0-0.4,0-0.6,0c-5.1,0-10.2,0-15.4,0c-1.1,0.1-2.1-0.7-2.2-1.8c0-0.1,0-0.3,0-0.4c0-5.2,0-10.4,0-15.5c-0.1-1,0.6-1.9,1.6-2
	c0.2,0,0.4,0,0.5,0C77.1,78.4,79.8,78.3,82.4,78.3z"/>
</svg>
