<?xml version="1.0" encoding="utf-8"?>
<!-- Generator: Adobe Illustrator 21.0.0, SVG Export Plug-In . SVG Version: 6.00 Build 0)  -->
<svg version="1.1" id="图层_1" xmlns="http://www.w3.org/2000/svg" xmlns:xlink="http://www.w3.org/1999/xlink" x="0px" y="0px"
	 viewBox="0 0 128 128" style="enable-background:new 0 0 128 128;" xml:space="preserve">
<style type="text/css">
	.st0{fill:#FFFFFF;stroke:#F08631;stroke-width:5;stroke-miterlimit:10;}
	.st1{fill:#FFFFFF;stroke:#D63F21;stroke-width:2.5;stroke-miterlimit:10;}
	.st2{fill:#F4BA64;}
	.st3{fill:#F08631;}
</style>
<title>画板 1</title>
<path class="st0" d="M20.7,2.5h86.6c3.4,0,6.1,2.7,6.1,6.1v110.7c0,3.4-2.7,6.1-6.1,6.1H20.7c-3.4,0-6.1-2.7-6.1-6.1V8.7
	C14.6,5.3,17.3,2.5,20.7,2.5z"/>
<path class="st1" d="M30.4,51.5h66.9c1.8,0,3.2,1.4,3.2,3.2v44.2c0,1.8-1.4,3.2-3.2,3.2H30.4c-1.8,0-3.2-1.4-3.2-3.2V54.7
	C27.2,52.9,28.6,51.5,30.4,51.5z"/>
<path class="st2" d="M36.7,57.1h51.5c0.8,0,1.4,0.6,1.4,1.4l0,0c0,0.8-0.6,1.4-1.4,1.4H36.7c-0.8,0-1.4-0.6-1.4-1.4l0,0
	C35.3,57.8,35.9,57.1,36.7,57.1z"/>
<path class="st2" d="M36.7,66.2h51.5c0.8,0,1.4,0.6,1.4,1.4l0,0c0,0.8-0.6,1.4-1.4,1.4H36.7c-0.8,0-1.4-0.6-1.4-1.4l0,0
	C35.3,66.8,35.9,66.2,36.7,66.2z"/>
<path class="st2" d="M36.7,75.2h16.8c0.8,0,1.5,0.6,1.5,1.4c0,0,0,0,0,0.1l0,0c0,0.8-0.6,1.4-1.4,1.4l0,0H36.7
	c-0.8,0-1.4-0.6-1.4-1.4l0,0l0,0C35.3,75.9,35.9,75.2,36.7,75.2L36.7,75.2z"/>
<path class="st2" d="M36.7,84.2h16.8c0.8,0,1.5,0.6,1.5,1.4c0,0,0,0,0,0.1l0,0c0,0.8-0.6,1.4-1.4,1.4l0,0H36.7
	c-0.8,0-1.4-0.6-1.4-1.4l0,0l0,0C35.3,84.9,35.9,84.2,36.7,84.2L36.7,84.2z"/>
<path class="st2" d="M36.7,93.3h16.8c0.8,0,1.4,0.6,1.4,1.4l0,0c0,0.8-0.6,1.4-1.4,1.4H36.7c-0.8,0-1.4-0.6-1.4-1.4l0,0
	C35.3,93.9,35.9,93.3,36.7,93.3z"/>
<path class="st2" d="M83.6,84.2c-0.2-0.8-0.5-1.6-0.8-2.4l-10.5,5.1l5-10.5c-5.8-2.8-12.8-0.3-15.6,5.5c-2.8,5.8-0.3,12.8,5.5,15.6
	S80,97.8,82.8,92C83.9,89.6,84.2,86.8,83.6,84.2L83.6,84.2z"/>
<path class="st3" d="M87.5,76.9C83,79,77,81.9,77,81.9l5-10.5c0.4,0.2,0.8,0.4,1.2,0.6C85,73.2,86.5,74.9,87.5,76.9z"/>
</svg>
