<svg id="图层_1" data-name="图层 1" xmlns="http://www.w3.org/2000/svg" viewBox="0 0 128 128"><defs><style>.cls-1{fill:#fff;}.cls-2{fill:#829cbc;}.cls-3{fill:#c895f9;}.cls-4{fill:#f4764e;}.cls-5{fill:#ffc943;}.cls-6{fill:#e2e2e2;}.cls-7{fill:#327fcc;}</style></defs><title>画板 1</title><rect class="cls-1" x="15.6" y="3.74" width="96.12" height="119.9"/><path class="cls-2" d="M107.37,127.51H21.05a8.61,8.61,0,0,1-8.6-8.6V8.61A8.61,8.61,0,0,1,21.05,0h86.32A8.61,8.61,0,0,1,116,8.61v110.3A8.61,8.61,0,0,1,107.37,127.51ZM21.05,5a3.63,3.63,0,0,0-3.62,3.63v110.3a3.63,3.63,0,0,0,3.62,3.62h86.32a3.63,3.63,0,0,0,3.62-3.62V8.61A3.63,3.63,0,0,0,107.37,5Z"/><path class="cls-2" d="M94.08,54.1V76.33h-2.5V54.1A1.57,1.57,0,0,0,90,52.53H37.59A1.57,1.57,0,0,0,36,54.1V98.9a1.58,1.58,0,0,0,1.57,1.57H63.66V103H37.59a4.06,4.06,0,0,1-4.06-4.06V54.1A4.07,4.07,0,0,1,37.59,50H90A4.08,4.08,0,0,1,94.08,54.1Z"/><rect class="cls-3" x="70.28" y="63.28" width="16.84" height="2.84" rx="1.42" ry="1.42"/><rect class="cls-4" x="41.78" y="63.28" width="16.84" height="2.84" rx="1.42" ry="1.42"/><rect class="cls-5" x="43.02" y="87.07" width="16.84" height="2.84" rx="1.42" ry="1.42" transform="translate(-47.5 62.29) rotate(-45)"/><rect class="cls-5" x="49.9" y="79.94" width="2.84" height="16.84" rx="1.42" ry="1.42" transform="translate(-47.45 62.17) rotate(-45)"/><rect class="cls-4" x="48.78" y="56.27" width="2.84" height="16.84" rx="1.42" ry="1.42"/><circle class="cls-6" cx="80.04" cy="90.98" r="16.96"/><path class="cls-6" d="M80,108.44A17.46,17.46,0,1,1,97.5,91,17.49,17.49,0,0,1,80,108.44Zm0-33.92A16.46,16.46,0,1,0,96.49,91,16.47,16.47,0,0,0,80,74.52Z"/><path class="cls-7" d="M81.74,85.43l-.06.06a2.33,2.33,0,0,1-1.62.65,2.4,2.4,0,0,1-1.7-.7l0,0a2.38,2.38,0,0,1,0-3.36h0a2.37,2.37,0,0,1,1.7-.71,2.42,2.42,0,0,1,1.7.7l0,0a2.37,2.37,0,0,1,0,3.34Z"/><path class="cls-7" d="M81.74,100.16l-.06.06a2.36,2.36,0,0,1-1.62.64,2.32,2.32,0,0,1-1.7-.7l0,0a2.38,2.38,0,0,1,0-3.36h0a2.43,2.43,0,0,1,3.4,0l0,0a2.38,2.38,0,0,1,0,3.35Z"/><path class="cls-7" d="M90,93.1H70.37a2.12,2.12,0,0,1-2.21-2h0a2.12,2.12,0,0,1,2.21-2H90a2.12,2.12,0,0,1,2.21,2h0A2.12,2.12,0,0,1,90,93.1Z"/></svg>