<svg id="图层_1" data-name="图层 1" xmlns="http://www.w3.org/2000/svg" viewBox="0 0 128 128"><defs><style>.cls-1{fill:#fff;}.cls-2{fill:#4b8898;}.cls-3{fill:#3d92d8;}.cls-4{fill:#a5a5a5;}.cls-5{fill:#ffef5c;}.cls-6{opacity:0.4;}.cls-7{fill:#0baaa2;}.cls-8{fill:#a0dcea;}.cls-9{fill:#6bbed7;}.cls-10{fill:#f4ba64;}.cls-11{fill:#f08631;}.cls-12{fill:#f4764e;}.cls-13{fill:#fda94f;}</style></defs><title>画板 1</title><rect class="cls-1" x="15.6" y="3.74" width="96.12" height="119.9"/><path class="cls-2" d="M107.37,127.51H21.05a8.61,8.61,0,0,1-8.6-8.6V8.61A8.61,8.61,0,0,1,21.05,0h86.32A8.61,8.61,0,0,1,116,8.61v110.3A8.61,8.61,0,0,1,107.37,127.51ZM21.05,5a3.63,3.63,0,0,0-3.62,3.63v110.3a3.63,3.63,0,0,0,3.62,3.62h86.32a3.63,3.63,0,0,0,3.62-3.62V8.61A3.63,3.63,0,0,0,107.37,5Z"/><polygon class="cls-3" points="49.07 73.82 49.07 77.31 50.04 78.46 53.9 78.6 70.45 78.51 71.55 77.31 71.41 73.59 71.18 72.07 69.16 71.11 67.37 70.69 64.42 70.97 62.08 72.17 60.84 73.18 59.69 74 58.63 74.88 58.22 75.29 57.39 75.34 56.29 74.1 54.36 73.08 51.92 72.86 49.99 73.22 49.07 73.82"/><path class="cls-4" d="M70,79.47H50.64a2.12,2.12,0,0,1-2.12-2.11V63.94a2.12,2.12,0,0,1,2.12-2.12H70a2.12,2.12,0,0,1,2.11,2.12V77.36A2.12,2.12,0,0,1,70,79.47ZM50.64,62.93a1,1,0,0,0-1,1V77.36a1,1,0,0,0,1,1H70a1,1,0,0,0,1-1V63.94a1,1,0,0,0-1-1Z"/><path class="cls-4" d="M58.17,76.32h-.06a1,1,0,0,1-.76-.56c-2.21-4.05-8.22-2-8.28-2l-.37-1c.07,0,6.73-2.32,9.5,2.27.64-.83,3.69-4.5,7.7-5A7.57,7.57,0,0,1,71.81,72l-.71.85A6.46,6.46,0,0,0,66,71.13c-3.93.47-7,4.63-7,4.67A1,1,0,0,1,58.17,76.32Z"/><circle class="cls-5" cx="54.76" cy="66.96" r="2.31"/><path class="cls-4" d="M54.76,69.82A2.86,2.86,0,1,1,57.62,67,2.86,2.86,0,0,1,54.76,69.82Zm0-4.62A1.76,1.76,0,1,0,56.52,67,1.76,1.76,0,0,0,54.76,65.2Z"/><g class="cls-6"><rect class="cls-7" x="31.37" y="47.55" width="33.02" height="8.88"/></g><path class="cls-7" d="M63.36,46.54H32.21a2,2,0,0,0-2,2V74.9a2,2,0,0,0,2,2H48.56V75.3H43v-8h5.57v-1.6H43v-8h9.59v4.19h1.6V57.72h9.58v4.19h1.6V48.54A2,2,0,0,0,63.36,46.54ZM41.4,75.3H32.21a.4.4,0,0,1-.4-.4V67.31H41.4Zm0-9.59H31.81v-8H41.4Zm22.36-9.58H31.81V48.54a.4.4,0,0,1,.4-.4H63.36a.4.4,0,0,1,.4.4Z"/><path class="cls-8" d="M87.53,75.39c2.21,0,4.42,0,6.63,0,1.46,0,2.11.5,2.09,2,0,4.52,0,9,0,13.56a1.78,1.78,0,0,1-2,2.07c-4.58,0-9.14,0-13.72,0a1.81,1.81,0,0,1-2-2q0-6.94,0-13.87a1.61,1.61,0,0,1,1.87-1.81C82.8,75.42,85.16,75.39,87.53,75.39Z"/><path class="cls-9" d="M87.41,93.49c-2.29,0-4.59,0-6.86,0A2.24,2.24,0,0,1,78.14,91c0-4.63,0-9.27,0-13.88a2.28,2.28,0,0,1,.59-1.68,2.35,2.35,0,0,1,1.72-.57c1.76,0,3.56,0,5.3,0h3.77c1.52,0,3.09,0,4.63,0a2.57,2.57,0,0,1,1.95.58,2.51,2.51,0,0,1,.6,1.89c-.06,4.5-.06,9.06,0,13.55a2.53,2.53,0,0,1-.63,1.89,2.44,2.44,0,0,1-1.8.63Q90.85,93.49,87.41,93.49Zm-7-17.69A1.17,1.17,0,0,0,79,77.16Q79,84.09,79,91a1.35,1.35,0,0,0,1.52,1.54c4.55,0,9.16,0,13.71,0a1.56,1.56,0,0,0,1.17-.37A1.64,1.64,0,0,0,95.8,91c0-4.5,0-9.06,0-13.57a1.68,1.68,0,0,0-.33-1.24,1.74,1.74,0,0,0-1.3-.32c-1.55,0-3.13,0-4.65,0H85.76c-1.75,0-3.56,0-5.33,0Z"/><path class="cls-10" d="M53.42,94.43A10.26,10.26,0,0,0,53.26,92L42.4,94l7.22-8.37a11.13,11.13,0,0,0-14.71.26,11.06,11.06,0,1,0,18.51,8.54Z"/><path class="cls-11" d="M58.9,88.68,48,90.66l7.22-8.37a11.21,11.21,0,0,1,3.65,6.39Z"/><rect class="cls-12" x="59.29" y="92.72" width="17.8" height="3" rx="1.5" ry="1.5"/><rect class="cls-12" x="66.69" y="85.31" width="3" height="17.8" rx="1.5" ry="1.5"/><path class="cls-13" d="M95.73,59.5a1.87,1.87,0,0,0-.32,0L93,53.54a3.74,3.74,0,0,0,1.31-2.22,3.84,3.84,0,1,0-6.69,1.77l-9.6,12.52a2.74,2.74,0,0,0-.39-.09,3,3,0,0,0-.74-.06L74.6,59.58a2.64,2.64,0,0,0,.66-1.31,2.67,2.67,0,1,0-3.13,2.13l.3,0,2.31,5.87a3.43,3.43,0,1,0,5.64,3.23A3.37,3.37,0,0,0,79.9,67l9.75-12.71a3.77,3.77,0,0,0,1.21.1l2.38,5.9a2.73,2.73,0,0,0-.65,1.29,2.68,2.68,0,1,0,3.14-2.12Zm-6.64-9.19a1.51,1.51,0,1,1,1.19,1.76A1.51,1.51,0,0,1,89.09,50.31Z"/></svg>