<svg id="图层_1" data-name="图层 1" xmlns="http://www.w3.org/2000/svg" viewBox="0 0 1235.4 1235.4"><defs><style>.cls-1{fill:#84b7bc;}.cls-2{fill:#353f49;}.cls-3{fill:#062d38;}.cls-4{fill:#02465d;}.cls-5{fill:#ccc;}.cls-6{fill:#b59272;}.cls-7{fill:#63492f;}.cls-8{fill:#efdacb;}.cls-9{fill:#56c8ef;}.cls-10{fill:#ceaa8e;}.cls-11{fill:#f6efe5;}.cls-12{fill:#17948a;}.cls-13{fill:#866292;}.cls-14{fill:#a14264;}.cls-15{fill:#e19593;}.cls-16{fill:#abd16a;}.cls-17{fill:#69b8af;}.cls-18{fill:#fbfbfb;}.cls-19{fill:#03386e;}.cls-20{fill:#08c6a2;}.cls-21{fill:#34465c;}.cls-22{fill:#eeda72;}.cls-23{fill:#efefef;}.cls-24{fill:#666;}.cls-25,.cls-29{fill:#fff;}.cls-26{fill:#83e5d7;}.cls-27{fill:#fbb;}.cls-28{fill:#7bc0dd;}.cls-29{stroke:#d63f21;}.cls-29,.cls-33,.cls-34,.cls-35{stroke-miterlimit:10;}.cls-29,.cls-34{stroke-width:2.5px;}.cls-30{fill:#f4ba64;}.cls-31{fill:#f08631;}.cls-32{fill:#3d92d8;}.cls-33,.cls-34{fill:none;}.cls-33,.cls-35{stroke:#a5a5a5;stroke-width:2px;}.cls-34{stroke:#3d92d8;}.cls-35{fill:#ffef5c;}</style></defs><title>1231*1257改2 定</title><circle class="cls-1" cx="617.7" cy="617.7" r="617.7"/><path class="cls-2" d="M106.3,1140.5H1229.8a17,17,0,0,1,16.9,16.9v6.5a17,17,0,0,1-16.9,16.9H106.3a17.07,17.07,0,0,1-16.9-16.9v-6.5a16.86,16.86,0,0,1,16.7-17C106.2,1140.5,106.2,1140.5,106.3,1140.5Z" transform="translate(-41.3 -8.9)"/><rect class="cls-3" x="508.6" y="1046.8" width="208.2" height="64.2"/><path class="cls-4" d="M248.1,434.8h812a14.53,14.53,0,0,1,14.5,14.3h0v605.8a14.4,14.4,0,0,1-14.4,14.4H248.1a14.53,14.53,0,0,1-14.5-14.3V449.1a14.6,14.6,0,0,1,14.5-14.3Z" transform="translate(-41.3 -8.9)"/><path class="cls-5" d="M269.6,471.2h768.9a8.41,8.41,0,0,1,8.5,8.4V962.1a8.49,8.49,0,0,1-8.5,8.5H269.6a8.49,8.49,0,0,1-8.5-8.5V479.7a8.37,8.37,0,0,1,8.3-8.4A.31.31,0,0,1,269.6,471.2Z" transform="translate(-41.3 -8.9)"/><path class="cls-4" d="M505.1,1106.5H803.2a14.45,14.45,0,0,1,14.4,14.3v5.5a14.38,14.38,0,0,1-14.4,14.3H505.1a14.45,14.45,0,0,1-14.4-14.3v-5.5a14.32,14.32,0,0,1,14.1-14.3Z" transform="translate(-41.3 -8.9)"/><path class="cls-6" d="M1055,574.3h74.9a4.69,4.69,0,0,1,4.7,4.7h0v13.2a4.69,4.69,0,0,1-4.7,4.7H1055a4.69,4.69,0,0,1-4.7-4.7h0V579a4.67,4.67,0,0,1,4.6-4.7Z" transform="translate(-41.3 -8.9)"/><path class="cls-6" d="M1025.8,1125.7a4.23,4.23,0,0,1-4.4,4h-.1l-12.3-.7a4.23,4.23,0,0,1-4-4.4v-.1h0l25.4-511.8a4.23,4.23,0,0,1,4.4-4h.1l12.4.6a4.23,4.23,0,0,1,4,4.4v.1Z" transform="translate(-41.3 -8.9)"/><path class="cls-7" d="M1047.1,609.4l-6.1-.2-25.7,520.3,6.1.2a4.3,4.3,0,0,0,4.5-3.9l25.3-511.9A4.34,4.34,0,0,0,1047.1,609.4Z" transform="translate(-41.3 -8.9)"/><path class="cls-6" d="M1159.1,1125.7a4.23,4.23,0,0,0,4.4,4h.1l12.4-.6a4.23,4.23,0,0,0,4-4.4v-.1l-25.4-511.8a4.23,4.23,0,0,0-4.4-4h-.1l-12.4.6a4.23,4.23,0,0,0-4,4.4v.1Z" transform="translate(-41.3 -8.9)"/><path class="cls-7" d="M1137.7,609.4l6.1-.2,25.7,520.3-6.1.2a4.3,4.3,0,0,1-4.5-3.9l-25.3-511.9A4.4,4.4,0,0,1,1137.7,609.4Z" transform="translate(-41.3 -8.9)"/><path class="cls-6" d="M1081.7,536.2h21.4a4.69,4.69,0,0,1,4.7,4.7h0V818.3a4.69,4.69,0,0,1-4.7,4.7h-21.4a4.69,4.69,0,0,1-4.7-4.7h0V540.9a4.53,4.53,0,0,1,4.5-4.7Z" transform="translate(-41.3 -8.9)"/><path class="cls-7" d="M1103.1,536.2h-10.7V822.9h10.7a4.69,4.69,0,0,0,4.7-4.7h0V540.8A4.81,4.81,0,0,0,1103.1,536.2Z" transform="translate(-41.3 -8.9)"/><path class="cls-7" d="M1050.3,585.5v6.6a4.69,4.69,0,0,0,4.7,4.7h74.9a4.69,4.69,0,0,0,4.7-4.7h0v-6.6Z" transform="translate(-41.3 -8.9)"/><rect id="_矩形_" data-name=" 矩形 " class="cls-8" x="919" y="637" width="265.1" height="294"/><path id="_路径_" data-name=" 路径 " class="cls-9" d="M960.3,784.8s27.5-6.8,44.6,14.3c0,0,59.6,82,120.3,64.5,0,0,73.9-49.4,100.3-26.4V939.9H960.3Z" transform="translate(-41.3 -8.9)"/><g id="_编组_" data-name=" 编组 "><path class="cls-10" d="M1227.5,805.6h-91.6a10.9,10.9,0,0,0-10.9,10.8V929.3a10.9,10.9,0,0,0,10.8,10.9h91.6a10.76,10.76,0,0,0,10.8-10.8h0v-113A10.73,10.73,0,0,0,1227.5,805.6Zm-76.1,35.6c-7,1.4-14.1-3.3-15.9-10.7s2.3-14.5,9.3-15.9,14.1,3.3,15.9,10.7S1158.3,839.8,1151.4,841.2Z" transform="translate(-41.3 -8.9)"/></g><path id="_路径_2" data-name=" 路径 2" class="cls-11" d="M1160.6,888.4c-1.9,7.4-9.2,12.1-16.1,10.6s-11-8.7-9-16,9.2-12.1,16.1-10.6S1162.5,881,1160.6,888.4Z" transform="translate(-41.3 -8.9)"/><path id="_路径_3" data-name=" 路径 3" class="cls-12" d="M1170,917.5c-7.3-3.7-10.2-11.3-6.8-16.9s12.2-7.1,19.5-3.4,10.2,11.3,6.8,16.9S1177.3,921.2,1170,917.5Z" transform="translate(-41.3 -8.9)"/><path id="_路径_4" data-name=" 路径 4" class="cls-13" d="M1196.7,881.5c5.3-5.9,13-8,17.3-4.8s3.4,10.5-1.9,16.3-13,8-17.3,4.8S1191.3,887.4,1196.7,881.5Z" transform="translate(-41.3 -8.9)"/><path id="_路径_5" data-name=" 路径 5" class="cls-14" d="M1194,846.3c3.3-6.9,10.7-10.7,16.4-8.4s7.8,9.7,4.5,16.7-10.7,10.7-16.4,8.4S1190.7,853.2,1194,846.3Z" transform="translate(-41.3 -8.9)"/><path id="_路径_6" data-name=" 路径 6" class="cls-15" d="M1039.2,764.2c-10.4-3.8-17.1-11.2-14.7-16.4s12.7-6.5,23.2-2.7,17.1,11.2,14.7,16.4S1049.6,768,1039.2,764.2Z" transform="translate(-41.3 -8.9)"/><path id="_路径_7" data-name=" 路径 7" class="cls-16" d="M1083.9,771.8c5.3-6.4,13.8-8.8,18.7-5.3s4.7,11.3-.6,17.8-13.8,8.8-18.7,5.3S1078.6,778.2,1083.9,771.8Z" transform="translate(-41.3 -8.9)"/><path id="_路径_8" data-name=" 路径 8" class="cls-17" d="M1045.6,797.5c4.2-5,11.6-6.4,16.7-2.9s5.7,10.3,1.5,15.3-11.6,6.4-16.7,2.9S1041.5,802.5,1045.6,797.5Z" transform="translate(-41.3 -8.9)"/><rect class="cls-7" x="955.1" y="943.8" width="195.3" height="10.7"/><rect class="cls-6" x="955.1" y="930.7" width="195.3" height="13.1"/><rect class="cls-18" x="867.2" y="974.3" width="142.4" height="156.7"/><path class="cls-19" d="M1051.8,977.9H907.6a5.16,5.16,0,0,0-5.2,5.2h154.5A5.28,5.28,0,0,0,1051.8,977.9Z" transform="translate(-41.3 -8.9)"/><path class="cls-20" d="M1006,1020h20.5a4.6,4.6,0,0,1,4.5,4.4v.1h0V1045a4.44,4.44,0,0,1-4.5,4.5H1006a4.55,4.55,0,0,1-4.5-4.5v-20.5a4.84,4.84,0,0,1,4.5-4.5Zm20.7,2.5h-20.5a2,2,0,0,0-1.9,1.9v20.5a2.11,2.11,0,0,0,.5,1.3,1.87,1.87,0,0,0,1.4.5h20.5a2.11,2.11,0,0,0,1.3-.5,1.9,1.9,0,0,0,.5-1.3v-20.5a2.22,2.22,0,0,0-1.8-1.9Z" transform="translate(-41.3 -8.9)"/><polygon class="cls-21" points="962.8 1020.1 972.1 1036.3 1001.8 999.9 972.1 1026 962.8 1020.1"/><rect class="cls-15" x="895.9" y="1035.3" width="12.9" height="25.6"/><rect class="cls-22" x="908.9" y="998.7" width="12.9" height="62.1"/><rect class="cls-16" x="921.8" y="1016.8" width="12.9" height="44.1"/><rect class="cls-17" x="934.7" y="1022.8" width="12.9" height="38.1"/><polygon class="cls-23" points="895.9 1035.3 902.3 1023.2 908.8 1035.3 895.9 1035.3"/><polygon class="cls-15" points="904.5 1027 900.3 1027 902.3 1023.2 904.5 1027"/><rect class="cls-17" x="883.1" y="1042.7" width="12.9" height="18.1"/><polygon class="cls-23" points="883.1 1042.9 889.5 1030.8 895.9 1042.9 883.1 1042.9"/><polygon class="cls-17" points="891.5 1034.8 887.4 1034.8 889.5 1030.8 891.5 1034.8"/><polygon class="cls-23" points="908.9 998.7 915.3 986.8 921.8 998.7 908.9 998.7"/><polygon class="cls-22" points="917.4 990.6 913.3 990.6 915.3 986.8 917.4 990.6"/><polygon class="cls-23" points="921.8 1016.8 928.2 1004.8 934.7 1016.8 921.8 1016.8"/><polygon class="cls-16" points="930.4 1008.7 926.2 1008.7 928.2 1004.8 930.4 1008.7"/><polygon class="cls-23" points="934.7 1022.8 941.1 1010.7 947.7 1022.8 934.7 1022.8"/><polygon class="cls-17" points="943.2 1014.6 939 1014.6 941.1 1010.7 943.2 1014.6"/><path class="cls-24" d="M925.8,1081.5h65.6a1.71,1.71,0,0,1,1.8,1.7v.1h0a1.71,1.71,0,0,1-1.7,1.8H925.8a1.71,1.71,0,0,1-1.8-1.7v-.1h0A1.79,1.79,0,0,1,925.8,1081.5Z" transform="translate(-41.3 -8.9)"/><path class="cls-24" d="M925.8,1104.7h78.5a1.71,1.71,0,0,1,1.8,1.7v.1h0a1.71,1.71,0,0,1-1.7,1.8H925.8a1.71,1.71,0,0,1-1.8-1.7v-.1h0a1.73,1.73,0,0,1,1.8-1.8Z" transform="translate(-41.3 -8.9)"/><path class="cls-24" d="M969.2,1094.1h38.6a1.37,1.37,0,0,1,1.4,1.4v.8a1.37,1.37,0,0,1-1.4,1.4H969.2a1.37,1.37,0,0,1-1.4-1.4v-.8A1.51,1.51,0,0,1,969.2,1094.1Z" transform="translate(-41.3 -8.9)"/><path class="cls-24" d="M925.8,1092.9H945a1.71,1.71,0,0,1,1.8,1.7v.1h0a1.71,1.71,0,0,1-1.7,1.8H925.8a1.71,1.71,0,0,1-1.8-1.7v-.1h0a1.73,1.73,0,0,1,1.8-1.8Z" transform="translate(-41.3 -8.9)"/><path class="cls-24" d="M1009.8,1081.7h21.4a1.71,1.71,0,0,1,1.8,1.7v.1h0a1.71,1.71,0,0,1-1.7,1.8h-21.5a1.71,1.71,0,0,1-1.8-1.7v-.1h0a1.68,1.68,0,0,1,1.8-1.8Z" transform="translate(-41.3 -8.9)"/><path class="cls-25" d="M375.8,408.3H857.7s29.8,8.7,30.7,36.2l-1,526.5-484.1-1.5,1.5-529S408,419.3,375.8,408.3Z" transform="translate(-41.3 -8.9)"/><path class="cls-26" d="M361.4,435.3l43.2.4s-2.7-24.3-30.7-27.9C373.9,407.8,358.2,405.5,361.4,435.3Z" transform="translate(-41.3 -8.9)"/><rect class="cls-27" x="434.7" y="574.6" width="126.9" height="53.4"/><path class="cls-28" d="M487.6,552.8H558a5.34,5.34,0,0,1,5.3,5.3h0a5.34,5.34,0,0,1-5.3,5.3H487.6a5.49,5.49,0,0,1-5.4-5.3h0A5.49,5.49,0,0,1,487.6,552.8Z" transform="translate(-41.3 -8.9)"/><path class="cls-28" d="M602.6,552.8h70.3a5.34,5.34,0,0,1,5.3,5.3h0a5.34,5.34,0,0,1-5.3,5.3H602.6a5.34,5.34,0,0,1-5.3-5.3h0A5.21,5.21,0,0,1,602.6,552.8Z" transform="translate(-41.3 -8.9)"/><path class="cls-28" d="M718.8,552.8h70.3a5.34,5.34,0,0,1,5.3,5.3h0a5.34,5.34,0,0,1-5.3,5.3H718.8a5.34,5.34,0,0,1-5.3-5.3h0A5.21,5.21,0,0,1,718.8,552.8Z" transform="translate(-41.3 -8.9)"/><path class="cls-26" d="M515.5,653.4H656.3a2.72,2.72,0,0,1,2.7,2.5v.1h0a2.72,2.72,0,0,1-2.5,2.7h-141a2.72,2.72,0,0,1-2.7-2.5v-.1h0A2.82,2.82,0,0,1,515.5,653.4Z" transform="translate(-41.3 -8.9)"/><path class="cls-26" d="M496.6,669.5H637.4a2.72,2.72,0,0,1,2.7,2.5v.1h0a2.72,2.72,0,0,1-2.5,2.7h-141a2.72,2.72,0,0,1-2.7-2.5v-.1h0A2.69,2.69,0,0,1,496.6,669.5Z" transform="translate(-41.3 -8.9)"/><path class="cls-26" d="M491.7,685.7H632.5a2.72,2.72,0,0,1,2.7,2.5v.1h0a2.73,2.73,0,0,1-2.6,2.7H491.7a2.72,2.72,0,0,1-2.7-2.5v-.1h0A2.82,2.82,0,0,1,491.7,685.7Z" transform="translate(-41.3 -8.9)"/><path class="cls-26" d="M510.5,701.8H651.3a2.72,2.72,0,0,1,2.7,2.5v.1h0a2.72,2.72,0,0,1-2.5,2.7h-141a2.72,2.72,0,0,1-2.7-2.5v-.1h0A2.82,2.82,0,0,1,510.5,701.8Z" transform="translate(-41.3 -8.9)"/><path class="cls-26" d="M500.9,718H641.7a2.72,2.72,0,0,1,2.7,2.5v.1h0a2.72,2.72,0,0,1-2.5,2.7h-141a2.72,2.72,0,0,1-2.7-2.5v-.1h0A2.69,2.69,0,0,1,500.9,718Z" transform="translate(-41.3 -8.9)"/><path class="cls-26" d="M515.8,734.2H656.6a2.72,2.72,0,0,1,2.7,2.5v.1h0a2.72,2.72,0,0,1-2.5,2.7h-141a2.72,2.72,0,0,1-2.7-2.5v-.1h0A2.69,2.69,0,0,1,515.8,734.2Z" transform="translate(-41.3 -8.9)"/><rect class="cls-26" x="651.1" y="574.6" width="120.4" height="161.9"/><rect class="cls-22" x="582" y="574.9" width="49.6" height="53.1"/><path class="cls-29" d="M483.3,785.9H626.5a6.87,6.87,0,0,1,6.8,6.8v94.8a6.87,6.87,0,0,1-6.8,6.8H483.3a6.87,6.87,0,0,1-6.8-6.8V792.7A7,7,0,0,1,483.3,785.9Z" transform="translate(-41.3 -8.9)"/><path class="cls-30" d="M496.8,798H607.1a3.18,3.18,0,0,1,3.1,3.1h0a3.18,3.18,0,0,1-3.1,3.1H496.8a3.18,3.18,0,0,1-3.1-3.1h0A3.18,3.18,0,0,1,496.8,798Z" transform="translate(-41.3 -8.9)"/><path class="cls-30" d="M496.8,817.4H607.1a3.18,3.18,0,0,1,3.1,3.1h0a3.18,3.18,0,0,1-3.1,3.1H496.8a3.18,3.18,0,0,1-3.1-3.1h0A3.18,3.18,0,0,1,496.8,817.4Z" transform="translate(-41.3 -8.9)"/><path class="cls-30" d="M496.8,836.8h35.9a3.18,3.18,0,0,1,3.1,3.1h0a3.18,3.18,0,0,1-3.1,3.1H496.8a3.18,3.18,0,0,1-3.1-3.1h0A3.18,3.18,0,0,1,496.8,836.8Z" transform="translate(-41.3 -8.9)"/><path class="cls-30" d="M496.8,856.1h35.9a3.18,3.18,0,0,1,3.1,3.1h0a3.18,3.18,0,0,1-3.1,3.1H496.8a3.18,3.18,0,0,1-3.1-3.1h0A3.26,3.26,0,0,1,496.8,856.1Z" transform="translate(-41.3 -8.9)"/><path class="cls-30" d="M496.8,875.5h35.9a3.18,3.18,0,0,1,3.1,3.1h0a3.18,3.18,0,0,1-3.1,3.1H496.8a3.18,3.18,0,0,1-3.1-3.1h0a3.08,3.08,0,0,1,2.9-3.1Z" transform="translate(-41.3 -8.9)"/><path class="cls-30" d="M597.2,856.1a22.05,22.05,0,0,0-1.8-5.1L573,861.9l10.6-22.5a25,25,0,1,0,11.7,33.3,23.84,23.84,0,0,0,1.9-16.6Z" transform="translate(-41.3 -8.9)"/><path class="cls-31" d="M605.8,840.3c-9.6,4.6-22.4,10.8-22.4,10.8L594,828.6a20.13,20.13,0,0,1,2.5,1.4A25.66,25.66,0,0,1,605.8,840.3Z" transform="translate(-41.3 -8.9)"/><polygon class="cls-32" points="715.3 886.2 715.3 901.4 719.5 906.5 736.3 907 808.3 906.6 813.1 901.4 812.5 885.2 811.5 878.6 802.7 874.4 794.9 872.6 782.2 873.7 771.9 879 766.5 883.4 761.5 887 756.9 890.8 755 892.6 751.5 892.9 746.6 887.4 738.2 883 727.7 882 719.2 883.6 715.3 886.2"/><path class="cls-33" d="M854.1,889c-28.8-24.2-56.3,13.4-56.3,13.4-1.8,2.8-3.1.2-3.1.2-10.8-19.9-39-9.8-39-9.8" transform="translate(-41.3 -8.9)"/><path class="cls-34" d="M823.9,883.2v15.3a6.87,6.87,0,0,1-6.8,6.8H690.7a6.87,6.87,0,0,1-6.8-6.8v-108a6.87,6.87,0,0,1,6.8-6.8H817.1a6.87,6.87,0,0,1,6.8,6.8v55" transform="translate(-41.3 -8.9)"/><path class="cls-33" d="M763.3,845.3h84.3a6.85,6.85,0,0,1,6.8,6.7v58.6a6.85,6.85,0,0,1-6.7,6.8H763.3a6.85,6.85,0,0,1-6.8-6.7V852.1a6.87,6.87,0,0,1,6.8-6.8Z" transform="translate(-41.3 -8.9)"/><path class="cls-32" d="M706.8,797.2h92.5a3.37,3.37,0,0,1,3.4,3.4h0a3.37,3.37,0,0,1-3.4,3.4H706.8a3.37,3.37,0,0,1-3.4-3.4h0A3.37,3.37,0,0,1,706.8,797.2Z" transform="translate(-41.3 -8.9)"/><path class="cls-32" d="M706.8,818.9h92.5a3.37,3.37,0,0,1,3.4,3.4h0a3.37,3.37,0,0,1-3.4,3.4H706.8a3.37,3.37,0,0,1-3.4-3.4h0a3.37,3.37,0,0,1,3.4-3.4Z" transform="translate(-41.3 -8.9)"/><path class="cls-32" d="M706.8,840.6h34.1a3.37,3.37,0,0,1,3.4,3.4h0a3.37,3.37,0,0,1-3.4,3.4h-34a3.37,3.37,0,0,1-3.4-3.4h0a3.17,3.17,0,0,1,3-3.4Z" transform="translate(-41.3 -8.9)"/><path class="cls-32" d="M706.8,862.3h34.1a3.37,3.37,0,0,1,3.4,3.4h0a3.37,3.37,0,0,1-3.4,3.4h-34a3.37,3.37,0,0,1-3.4-3.4h0a3.17,3.17,0,0,1,3-3.4Z" transform="translate(-41.3 -8.9)"/><path class="cls-32" d="M706.8,884h34.1a3.37,3.37,0,0,1,3.4,3.4h0a3.37,3.37,0,0,1-3.4,3.4h-34a3.37,3.37,0,0,1-3.4-3.4h0a3.17,3.17,0,0,1,3-3.4Z" transform="translate(-41.3 -8.9)"/><circle class="cls-35" cx="740" cy="856.3" r="10.1"/></svg>