<?xml version="1.0" encoding="utf-8"?>
<!-- Generator: Adobe Illustrator 21.0.0, SVG Export Plug-In . SVG Version: 6.00 Build 0)  -->
<svg version="1.1" id="图层_1" xmlns="http://www.w3.org/2000/svg" xmlns:xlink="http://www.w3.org/1999/xlink" x="0px" y="0px"
	 viewBox="0 0 346 72" style="enable-background:new 0 0 346 72;" xml:space="preserve">
<style type="text/css">
	.st0{fill:#E50012;}
</style>
<title>logo</title>
<path class="st0" d="M67.7,18.2c-8.5,0-15.4,7.6-15.4,16.9S59.1,52,67.7,52s15.4-7.6,15.4-16.9S76.2,18.2,67.7,18.2z M67.7,45.3
	c-3.8,0-6.8-4.6-6.8-10.2S64,25,67.7,25c3.8,0,6.8,4.6,6.8,10.2S71.5,45.3,67.7,45.3z"/>
<path class="st0" d="M99.7,18.2c-8.5,0-15.4,7.6-15.4,16.9S91.2,52,99.7,52s15.4-7.6,15.4-16.9S108.2,18.2,99.7,18.2z M99.7,45.3
	c-3.8,0-6.8-4.6-6.8-10.2S96,25,99.7,25c3.8,0,6.8,4.6,6.8,10.2S103.5,45.3,99.7,45.3z"/>
<polygon class="st0" points="22.9,7.5 31.6,7.5 31.6,44.6 51.3,44.6 51.3,51.3 22.9,51.3 "/>
<path class="st0" d="M117.4,18.7h8.7v4.7c2.3-3.7,6.6-5.7,10.9-5c0,0,6.8,0.3,8.4,8.1c0.3,1.9,0.5,3.8,0.4,5.7v19H137V31.1
	c0,0,0.4-5.7-4.1-6c-2.5-0.2-5,0.8-6.6,2.7v23.5h-8.9L117.4,18.7z"/>
<path class="st0" d="M169.2,18.8l0.1,4c0,0-10.4-8.9-17.6,0.1c0,0-4.1,5.1-3,15.8c0,0,0.6,6.6,4.4,10.1c0,0,7.5,6.5,15.9-1.2
	c0,0,0.9,7.2-2.2,8.7c0,0-4.5,2.9-13.7-0.9l-1.4,6.5c0,0,9.5,5.1,18.9,0.9c0,0,6.8-2.4,7.1-11.3l0.1-32.8L169.2,18.8z M169,42.3
	c-1.4,1.8-3.5,2.8-5.7,2.9c-2.5-0.1-4.7-1.8-5.4-4.2c-0.6-2.4-0.8-4.9-0.6-7.4c0.3-4.4,1.8-6.5,1.8-6.5c1.4-2,4.2-2.1,4.2-2.1
	c2.4-0.2,4.6,1.1,5.7,3.2V42.3z"/>
<path d="M204.5,15.4c-9.7,0-17.6,8.4-17.6,18.8s7.9,18.8,17.6,18.8s17.6-8.4,17.6-18.8S214.2,15.4,204.5,15.4z M204.5,49.2
	c-7.1,0-12.8-6.7-12.8-15s5.7-15,12.8-15s12.8,6.7,12.8,15S211.6,49.2,204.5,49.2L204.5,49.2z"/>
<path d="M244.6,12.6c0,0-9.6-3-13.4,2.9c0,0-1.8,2.5-2.1,9.8H225v2.9h4.1v24.5h5.2V28.2h7.2v-2.9h-7.2c0,0-0.1-7.5,2.1-8.8
	c2.3-1.2,5-1.2,7.2,0L244.6,12.6z"/>
<path d="M261.1,12.6c0,0-9.6-3-13.4,2.9c0,0-1.8,2.5-2.1,9.8h-4.1v2.9h4.1v24.5h5.2V28.2h7.2v-2.9h-7.2c0,0-0.1-7.5,2.1-8.8
	c2.3-1.2,5-1.2,7.2,0L261.1,12.6z"/>
<circle cx="266.6" cy="16.5" r="2.9"/>
<rect x="264.2" y="25.3" width="4.9" height="27.4"/>
<path d="M296.5,28.3c0,0-4.1-4.8-12.3-3.7c-3.3,0.4-6.2,2.1-8.1,4.7c-2.9,4.2-3.9,9.4-2.9,14.3c0,0,2,8.9,11.3,9.9
	c4.2,0.4,8.4-0.5,12.1-2.7l-2-3c-3,1.7-6.6,2.4-10,1.8c0,0-6.8-1.1-6.8-10.9c0,0-0.1-8.6,7.8-10.4c0,0,4.8-0.8,8.4,2.1L296.5,28.3z"
	/>
<path d="M313.8,24.5c0,0-9.7-2-14.1,5.3c0,0-3.3,4.3-2.8,12.1c0,0,0.7,6.6,6.4,10.2c0,0,8.3,5.2,18.2-0.9l-1.9-2.9
	c0,0-9.2,5-15.6-1.3c-1.6-2-2.5-4.5-2.5-7.1H323C323,40,324.6,26.5,313.8,24.5z M318.8,36.8h-17.1c0,0,0.4-7.7,7.5-8.9
	c0,0,6.9-1.4,9,4.5C318.7,33.7,318.9,35.3,318.8,36.8L318.8,36.8z"/>
</svg>
