<?xml version="1.0" encoding="utf-8"?>
<!-- Generator: Adobe Illustrator 21.0.0, SVG Export Plug-In . SVG Version: 6.00 Build 0)  -->
<svg version="1.1" id="图层_1" xmlns="http://www.w3.org/2000/svg" xmlns:xlink="http://www.w3.org/1999/xlink" x="0px" y="0px"
	 viewBox="0 0 346 72" style="enable-background:new 0 0 346 72;" xml:space="preserve">
<style type="text/css">
	.st0{fill:#E50012;}
</style>
<title>画板 1</title>
<path class="st0" d="M67.7,18.2c-8.5,0-15.4,7.6-15.4,16.9S59.2,52,67.7,52s15.4-7.6,15.4-16.9S76.2,18.2,67.7,18.2z M67.7,45.3
	c-3.8,0-6.8-4.6-6.8-10.2S64,25,67.7,25s6.8,4.6,6.8,10.2S71.5,45.3,67.7,45.3z"/>
<path class="st0" d="M99.7,18.2c-8.5,0-15.4,7.6-15.4,16.9S91.2,52,99.7,52s15.4-7.6,15.4-16.9S108.2,18.2,99.7,18.2z M99.8,45.3
	c-3.8,0-6.8-4.6-6.8-10.2S96,25,99.8,25s6.8,4.6,6.8,10.2S103.5,45.3,99.8,45.3z"/>
<polygon class="st0" points="22.9,7.5 31.6,7.5 31.6,44.6 51.3,44.6 51.3,51.3 22.9,51.3 "/>
<path class="st0" d="M117.4,18.7h8.7v4.7c2.3-3.7,6.6-5.7,10.9-5c0,0,6.8,0.3,8.4,8.1c0.3,1.9,0.5,3.8,0.4,5.7v19H137V31.1
	c0,0,0.4-5.7-4.1-6c-2.5-0.2-5,0.8-6.6,2.7v23.5h-8.9L117.4,18.7z"/>
<path class="st0" d="M169.2,18.8l0.1,4c0,0-10.4-8.9-17.6,0.1c0,0-4.1,5.1-3,15.8c0,0,0.6,6.6,4.4,10.1c0,0,7.5,6.5,15.9-1.2
	c0,0,0.9,7.2-2.2,8.7c0,0-4.5,2.9-13.7-0.9l-1.4,6.5c0,0,9.5,5.1,18.9,0.9c0,0,6.8-2.4,7.1-11.3l0.1-32.8L169.2,18.8z M169,42.3
	c-1.4,1.8-3.5,2.8-5.7,2.9c-2.5-0.1-4.7-1.8-5.4-4.2c-0.6-2.4-0.8-4.9-0.6-7.4c0.3-4.4,1.8-6.5,1.8-6.5c1.4-2,4.2-2.1,4.2-2.1
	c2.4-0.2,4.6,1,5.7,3.1V42.3z"/>
</svg>
