<svg id="图层_1" data-name="图层 1" xmlns="http://www.w3.org/2000/svg" viewBox="0 0 346 72"><defs><style>.cls-1{fill:#e50012;}</style></defs><title>画板 1</title><path class="cls-1" d="M67.66,18.18c-8.51,0-15.41,7.58-15.41,16.92S59.15,52,67.66,52s15.41-7.6,15.41-16.91S76.17,18.18,67.66,18.18Zm.07,27.14c-3.77,0-6.84-4.56-6.84-10.19S64,25,67.73,25s6.84,4.56,6.84,10.18S71.51,45.32,67.73,45.32Z"/><path class="cls-1" d="M99.68,18.18c-8.51,0-15.41,7.58-15.41,16.92S91.17,52,99.68,52s15.41-7.6,15.41-16.91S108.19,18.18,99.68,18.18Zm.07,27.14c-3.77,0-6.84-4.56-6.84-10.19S96,25,99.75,25s6.84,4.56,6.84,10.18S103.53,45.32,99.75,45.32Z"/><polygon class="cls-1" points="22.93 7.51 31.65 7.51 31.65 44.64 51.34 44.64 51.34 51.26 22.93 51.26 22.93 7.51"/><path class="cls-1" d="M117.41,18.71h8.72v4.7a10.87,10.87,0,0,1,10.9-5s6.77.3,8.42,8.14a30.22,30.22,0,0,1,.45,5.73v19H137V31.14s.45-5.73-4.06-6a7.56,7.56,0,0,0-6.56,2.69v23.5h-8.87Z"/><path class="cls-1" d="M169.21,18.78l.07,4s-10.37-8.87-17.58.15c0,0-4.06,5.11-3,15.78,0,0,.6,6.62,4.36,10.08,0,0,7.51,6.46,15.93-1.21,0,0,.91,7.22-2.25,8.72,0,0-4.51,2.86-13.68-.9l-1.43,6.54s9.47,5.11,18.94.9c0,0,6.77-2.4,7.07-11.27l.15-32.78ZM169,42.31a7.24,7.24,0,0,1-5.71,2.86A6,6,0,0,1,157.86,41a25.15,25.15,0,0,1-.6-7.37c.3-4.36,1.8-6.46,1.8-6.46,1.35-2,4.21-2.11,4.21-2.11A6,6,0,0,1,169,28.18Z"/><path d="M204.47,15.41c-9.74,0-17.64,8.4-17.64,18.75s7.9,18.75,17.64,18.75,17.64-8.4,17.64-18.75S214.21,15.41,204.47,15.41Zm.05,33.76c-7.06,0-12.79-6.72-12.79-15s5.73-15,12.79-15,12.79,6.72,12.79,15-5.72,15-12.79,15Z"/><path d="M244.65,12.58s-9.6-3-13.41,2.94c0,0-1.81,2.46-2.06,9.8H225v2.94h4.13v24.5h5.16V28.25h7.22V25.31h-7.22s-.08-7.51,2.06-8.82a7.76,7.76,0,0,1,7.22,0Z"/><path d="M261.13,12.58s-9.6-3-13.41,2.94c0,0-1.81,2.46-2.06,9.8h-4.13v2.94h4.13v24.5h5.16V28.25H258V25.31h-7.23s-.08-7.51,2.06-8.82a7.76,7.76,0,0,1,7.22,0Z"/><circle cx="266.57" cy="16.5" r="2.94"/><rect x="264.24" y="25.31" width="4.9" height="27.44"/><path d="M296.47,28.28s-4.08-4.78-12.28-3.71A11.73,11.73,0,0,0,276,29.25a18.66,18.66,0,0,0-2.85,14.33s2,8.86,11.31,9.91a19.53,19.53,0,0,0,12.06-2.67l-2-3a15,15,0,0,1-10,1.8s-6.79-1.1-6.84-10.87c0,0-.13-8.64,7.8-10.35,0,0,4.82-.79,8.37,2.15Z"/><path d="M313.77,24.52s-9.67-2-14.14,5.32c0,0-3.33,4.35-2.75,12.1,0,0,.73,6.63,6.39,10.19,0,0,8.29,5.22,18.24-.88l-1.93-2.89s-9.16,5-15.62-1.27A12.13,12.13,0,0,1,301.41,40H323S324.63,26.55,313.77,24.52Zm5,12.26h-17.1s.44-7.72,7.45-8.94c0,0,6.93-1.4,9,4.47a9.36,9.36,0,0,1,.66,4.47Z"/></svg>